{"title":"Star Trek(2009)MPEG-4[DaScubaDude]","uid":15372104,"size":1388750876,"categoryP":"video","categoryS":"movies","magnet":"?xt=urn:btih:ffd6fb5ed38c45810e9e9f1cb220554b043bb02b&amp;dn=Star+Trek%282009%29MPEG-4%5BDaScubaDude%5D&amp;tr=udp%3A%2F%2Ftracker.leechers-paradise.org%3A6969&amp;tr=udp%3A%2F%2Fzer0day.ch%3A1337&amp;tr=udp%3A%2F%2Fopen.demonii.com%3A1337&amp;tr=udp%3A%2F%2Ftracker.coppersurfer.tk%3A6969&amp;tr=udp%3A%2F%2Fexodus.desync.com%3A6969","seeders":1,"leechers":0,"uploader":"dascuba","files":1,"time":1469146880,"description":"Star Trek (2009)\r\nPG-13 | 2h 7min | Action, Adventure, Sci-Fi | 8 May 2009 (USA)\r\nThe brash James T. Kirk tries to live up to his father's legacy with Commander Spock keeping him in check as a vengeful, time-traveling Romulan creates black holes to destroy the Federation one planet at a time.\r\nDirector: J.J. Abrams\r\nWriters: Roberto Orci, Alex Kurtzman | \r\nStars: Chris Pine, Zachary Quinto, Simon Pegg \r\n\r\nGeneral\r\nComplete name                            : Star Trek XISTAR_TREK_XI_DOM_Title21.mp4\r\nFormat                                   : MPEG-4\r\nFormat profile                           : Base Media\r\nCodec ID                                 : isom (isom/iso2/avc1/mp41)\r\nFile size                                : 1.29 GiB\r\nDuration                                 : 2h 6mn\r\nOverall bit rate                         : 1 460 Kbps\r\nMovie name                               : STAR_TREK_XI_DOM\r\nGenre                                    : Science_Fiction\r\nWriting application                      : Lavf54.6.100\r\n\r\nVideo\r\nID                                       : 1\r\nFormat                                   : AVC\r\nFormat/Info                              : Advanced Video Codec\r\nFormat profile                           :   \r\nFormat settings, CABAC                   : No\r\nFormat settings, ReFrames                : 6 frames\r\nCodec ID                                 : avc1\r\nCodec ID/Info                            : Advanced Video Coding\r\nDuration                                 : 2h 6mn\r\nBit rate                                 : 1 200 Kbps\r\nWidth                                    : 720 pixels\r\nHeight                                   : 404 pixels\r\nDisplay aspect ratio                     : 16:9\r\nFrame rate mode                          : Constant\r\nFrame rate                               : 29.970 (30000/1001) fps\r\nColor space                              : YUV\r\nChroma subsampling                       : 4:2:0\r\nBit depth                                : 8 bits\r\nScan type                                : Progressive\r\nBits/(Pixel*Frame)                       : 0.138\r\nStream size                              : 1.06 GiB (82%)\r\n\r\nAudio\r\nID                                       : 2\r\nFormat                                   : AAC\r\nFormat/Info                              : Advanced Audio Codec\r\nFormat profile                           : LC\r\nCodec ID                                 : 40\r\nDuration                                 : 2h 6mn\r\nBit rate mode                            : Constant\r\nBit rate                                 : 254 Kbps\r\nChannel(s)                               : 2 channels\r\nChannel(s)_Original                      : 6 channels\r\nChannel positions                        : Front: L C R, Side: L R, LFE\r\nSampling rate                            : 44.1 KHz\r\nFrame rate                               : 43.066 fps (1024 spf)\r\nCompression mode                         : Lossy\r\nStream size                              : 230 MiB (17%)\r\nDefault                                  : Yes\r\nAlternate group                          : 1","torrent":{"xt":"urn:btih:ffd6fb5ed38c45810e9e9f1cb220554b043bb02b","amp;dn":"Star+Trek%282009%29MPEG-4%5BDaScubaDude%5D","amp;tr":["udp%3A%2F%2Ftracker.leechers-paradise.org%3A6969","udp%3A%2F%2Fzer0day.ch%3A1337","udp%3A%2F%2Fopen.demonii.com%3A1337","udp%3A%2F%2Ftracker.coppersurfer.tk%3A6969","udp%3A%2F%2Fexodus.desync.com%3A6969"],"infoHash":"ffd6fb5ed38c45810e9e9f1cb220554b043bb02b","infoHashBuffer":{"type":"Buffer","data":[255,214,251,94,211,140,69,129,14,158,159,28,178,32,85,75,4,59,176,43]},"announce":[],"urlList":[]}}